<?xml version="1.0" encoding="utf-8"?>
<!-- Generator: Adobe Illustrator 14.0.0, SVG Export Plug-In . SVG Version: 6.00 Build 43363)  -->
<!DOCTYPE svg PUBLIC "-//W3C//DTD SVG 1.1//EN" "http://www.w3.org/Graphics/SVG/1.1/DTD/svg11.dtd">
<svg version="1.1" id="Layer_1" xmlns="http://www.w3.org/2000/svg" xmlns:xlink="http://www.w3.org/1999/xlink" x="0px" y="0px"
	 width="393.28px" height="99.21px" viewBox="0 0 393.28 99.21" enable-background="new 0 0 393.28 99.21" xml:space="preserve">
<rect x="-0.055" y="-0.089" fill="#FFFFFF" width="393.28" height="99.213"/>
<path d="M359.123,67.692c-2.404,0-2.404-0.476-2.404-17.899c0-17.346,0-17.819,2.404-17.819c2.477,0,2.477,0.473,2.477,17.819
	C361.6,67.22,361.6,67.692,359.123,67.692 M359.123,79.28c5.256,0,8.635-0.787,10.514-2.762c3.6-3.781,3.752-11.902,3.752-27.04
	c0-13.327-0.152-21.919-3.678-26.256c-1.877-2.287-5.33-3.47-10.588-3.47c-5.332,0-8.709,1.183-10.66,3.627
	c-3.457,4.416-3.607,13.009-3.607,26.096c0,13.798,0.15,22.395,3.83,26.649C350.564,78.258,353.941,79.28,359.123,79.28
	 M321.947,79.125h15.244l7.959-58.817h-11.787l-2.477,24.678l-1.131,14.821l-1.199-14.821l-2.555-24.678h-12.016L321.947,79.125z
	 M300.018,67.692c-2.402,0-2.402-0.476-2.402-17.899c0-17.346,0-17.819,2.402-17.819c2.475,0,2.475,0.473,2.475,17.819
	C302.492,67.22,302.492,67.692,300.018,67.692 M300.018,79.28c5.254,0,8.635-0.787,10.512-2.762
	c3.604-3.781,3.754-11.902,3.754-27.04c0-13.327-0.15-21.919-3.678-26.256c-1.879-2.287-5.332-3.47-10.588-3.47
	c-5.33,0-8.711,1.183-10.662,3.627c-3.455,4.416-3.607,13.009-3.607,26.096c0,13.798,0.152,22.395,3.832,26.649
	C291.457,78.258,294.834,79.28,300.018,79.28 M268.863,50.266V31.896h2.027c2.102,0,2.176,1.655,2.176,9.382
	c0,7.413-0.074,8.987-2.176,8.987H268.863z M257.225,78.729h11.639V61.621h3.529c11.113,0,12.236-8.596,12.236-21.289
	c0-12.77-1.123-20.024-12.764-20.024h-14.641V78.729z M233.656,67.692c-2.402,0-2.402-0.476-2.402-17.899
	c0-17.346,0-17.819,2.402-17.819c2.477,0,2.477,0.473,2.477,17.819C236.137,67.22,236.137,67.692,233.656,67.692 M233.656,79.28
	c5.256,0,8.639-0.787,10.512-2.762c3.605-3.781,3.756-11.902,3.756-27.04c0-13.327-0.15-21.919-3.68-26.256
	c-1.877-2.287-5.332-3.47-10.588-3.47c-5.33,0-8.711,1.183-10.662,3.627c-3.455,4.416-3.604,13.009-3.604,26.096
	c0,13.798,0.148,22.395,3.828,26.649C225.096,78.258,228.475,79.28,233.656,79.28 M201.589,68.086V31.502h1.727
	c3.004,0,3.004,2.364,3.004,18.291s0,18.293-3.004,18.293H201.589L201.589,68.086z M189.949,78.729h14.791
	c5.033,0,8.037-1.026,9.988-3.468c3.377-4.021,3.377-12.064,3.377-25.782c0-12.693,0-20.657-3.002-24.993
	c-2.027-2.917-5.031-4.178-10.363-4.178h-14.791V78.729z M164.58,54.523l1.127-12.299l1.126,12.299l0.675,5.993h-3.604
	L164.58,54.523z M150.162,78.729h11.64l0.75-6.858h6.232l0.827,6.858h12.165l-9.012-58.814h-13.667L150.162,78.729z M134.673,78.729
	h11.788V32.133h7.059V20.307h-25.68v11.825h6.834V78.729z M105.443,78.729h21.549V67.375h-9.911v-12.22h9.687V43.408h-9.687V32.291
	h9.911V20.307h-21.549V78.729z M79.192,78.729h24.93V67.375H91.958l11.639-36.503V20.307H79.868v11.984h11.264L79.192,69.426V78.729
	z M61.594,54.523l1.126-12.299l1.126,12.299l0.676,5.993h-3.605L61.594,54.523z M47.176,78.729h11.639l0.75-6.858h6.233l0.827,6.858
	h12.164l-9.01-58.815H56.113L47.176,78.729z M34.27,79.045c5.181,0,8.035-1.104,9.762-2.838c2.702-2.917,3.378-8.042,3.378-15.928
	V42.856H33.068v11.432h3.906v7.017c0,6.07,0,7.41-2.779,7.41c-2.852,0-2.852-2.602-2.852-18.919c0-16.638,0-17.898,4.581-17.898
	c3.004,0,5.781,0.473,7.433,0.789l2.329-11.668c-2.927-0.71-7.209-1.104-11.038-1.104c-5.181,0-9.311,1.181-11.263,3.627
	c-3.604,4.336-3.604,12.692-3.604,25.937c0,14.902,0.149,22.865,4.129,27.043C25.785,78.493,28.263,79.045,34.27,79.045"/>
</svg>
